<svg version="1.1" id="Layer_1" xmlns="http://www.w3.org/2000/svg" xmlns:xlink="http://www.w3.org/1999/xlink" x="0px" y="0px"
	 width="100%" viewBox="0 0 368 736" enable-background="new 0 0 368 736" xml:space="preserve">
<path fill="#000000" opacity="1.000000" stroke="none" 
	d="
M369.000000,403.600006 
	C364.131805,409.349121 359.697113,405.750336 354.393494,402.737335 
	C356.613495,410.522186 358.620605,417.558929 360.626556,424.596008 
	C361.037354,426.037201 361.456421,427.476196 361.849945,428.922150 
	C362.586212,431.627380 362.751495,434.308411 360.330017,436.268188 
	C357.783661,438.329041 355.361145,437.176361 352.656494,435.099792 
	C352.830627,439.099457 354.480316,443.485474 349.658569,445.170013 
	C346.225830,446.369354 344.014069,444.152863 342.424408,441.314117 
	C336.696198,446.520233 335.899536,446.206055 329.578461,436.324951 
	C323.141235,439.002197 321.164337,438.062469 319.373108,431.274475 
	C316.277710,419.544495 313.240295,407.799164 310.208557,396.052551 
	C309.919678,394.933380 309.548706,393.715820 309.712006,392.617737 
	C311.693604,379.295135 305.517242,368.329407 299.477448,357.391907 
	C293.680573,346.894257 287.313995,336.706146 281.677032,326.126648 
	C275.218658,314.005585 269.869354,301.128174 268.919678,287.460876 
	C268.106689,275.760712 265.009003,264.918365 261.623566,253.967957 
	C261.386108,253.199844 261.035004,252.466873 260.270782,251.731979 
	C256.431946,268.814636 250.684509,285.638458 255.594238,303.523621 
	C257.716095,311.253204 256.288696,319.313202 257.918091,327.229126 
	C263.401917,353.870331 268.549744,380.679810 268.928345,407.951355 
	C269.310608,435.486908 265.645447,462.745850 258.164948,489.273041 
	C252.467590,509.477051 251.433395,530.109375 255.952301,550.019043 
	C261.918152,576.303650 259.972534,601.450439 252.865662,626.848145 
	C249.010849,640.624084 245.856918,654.577820 243.759460,668.760620 
	C242.789764,675.317566 243.026398,681.835571 244.822311,688.062561 
	C246.556198,694.074402 252.069473,697.121521 257.310303,699.496704 
	C265.531708,703.222839 266.993256,708.316711 259.424286,713.070129 
	C250.972733,718.377808 241.530396,722.225647 232.230530,725.996765 
	C229.233551,727.211975 225.261841,726.582520 221.840820,726.081482 
	C213.641281,724.880615 209.465424,719.333069 210.960007,711.168823 
	C212.383820,703.391174 213.557495,695.816223 210.905228,688.033447 
	C210.076523,685.601685 210.228577,682.642639 211.181427,680.128235 
	C215.759583,668.047119 212.865524,655.819519 212.429718,643.567444 
	C211.828262,626.659058 206.335861,610.556763 205.136368,593.786804 
	C204.462555,584.366150 206.213531,575.202881 208.074432,566.096130 
	C209.643173,558.419067 209.673309,551.174438 206.953796,543.607727 
	C201.794052,529.251343 199.651978,514.255005 199.711349,498.997711 
	C199.790085,478.769958 196.667465,458.919891 193.166901,439.083282 
	C192.072403,432.881012 191.364807,426.569794 190.931213,420.139252 
	C189.756454,428.113342 188.964661,436.166840 187.330750,444.045715 
	C183.397369,463.012817 181.317841,482.095825 181.175842,501.495758 
	C181.069580,516.014404 178.973633,530.431824 173.665359,544.086975 
	C170.728577,551.641602 171.214020,559.062561 172.841278,566.651855 
	C176.494202,583.688538 176.508514,600.652527 171.898407,617.542053 
	C168.542786,629.835632 168.938263,642.594666 167.325470,655.105225 
	C166.161987,664.130798 166.817795,672.927368 169.946274,681.576172 
	C170.688553,683.628174 170.621582,686.371094 169.933670,688.470825 
	C167.436401,696.093567 168.430557,703.548828 169.939621,711.141724 
	C171.462875,718.805786 167.819427,724.444885 160.164612,725.878967 
	C152.988235,727.223328 145.826981,726.963745 139.678406,722.139893 
	C136.720932,719.819580 133.338043,718.510315 129.775970,717.565552 
	C125.092735,716.323364 121.240738,713.751526 118.296532,709.988464 
	C115.431915,706.327148 116.757034,701.891235 120.920311,700.125244 
	C137.120590,693.253601 136.515930,690.045959 137.495514,675.392029 
	C138.220398,664.548645 134.584946,654.043091 132.243927,643.508362 
	C128.568024,626.966675 123.757988,610.698669 121.396194,593.837708 
	C119.359482,579.297485 122.679993,565.427307 124.861649,551.306152 
	C127.901962,531.627075 128.530502,511.860626 123.292618,492.372559 
	C114.934517,461.275299 111.472412,429.646271 112.805099,397.505402 
	C113.420166,382.671539 117.630547,368.380219 119.922127,353.800049 
	C121.627831,342.947510 124.427574,332.274933 125.900711,321.478088 
	C127.176155,312.130249 128.851791,302.778015 129.625015,293.363464 
	C130.801758,279.035614 126.493362,265.413788 122.510689,251.361389 
	C120.387138,258.501038 117.930679,265.562347 116.227959,272.800995 
	C114.289909,281.040009 114.642456,289.645599 112.459198,297.920532 
	C108.245735,313.890289 101.043785,328.464203 92.415329,342.401917 
	C85.653000,353.325256 79.499344,364.550812 74.394630,376.353516 
	C73.343468,378.783997 73.279922,381.207733 73.460258,383.690002 
	C74.071457,392.103027 73.102974,400.327240 70.104034,408.192657 
	C67.124245,416.007843 65.815971,424.246368 63.486286,432.216125 
	C61.527538,438.916870 59.620594,439.586426 53.218418,436.092804 
	C51.698631,438.569946 51.447189,441.827972 48.985638,443.751526 
	C45.825150,446.221191 43.435677,444.555206 41.372330,442.102783 
	C34.394611,448.034576 31.646442,446.963196 29.578436,437.762787 
	C21.158331,436.529175 19.763348,434.271667 22.261864,425.816681 
	C24.421907,418.507111 26.619265,411.208588 29.224968,402.482483 
	C25.403090,405.187775 22.697420,407.392456 18.951944,406.598694 
	C14.700839,405.697845 12.979127,402.809265 15.575603,399.418030 
	C23.409609,389.186127 29.310793,377.170624 41.356842,370.701019 
	C43.810745,369.383057 45.209530,367.293304 46.192154,364.629181 
	C53.182991,345.675293 58.553627,326.365540 61.100246,306.237671 
	C62.271748,296.978363 65.278336,287.834900 70.123169,279.889801 
	C77.101280,268.446289 79.302513,256.130554 79.543259,243.173569 
	C79.683693,235.615219 81.111099,228.288773 83.222725,221.102463 
	C84.812042,215.693680 84.673630,210.375671 84.143166,204.828339 
	C82.326653,185.831894 85.688339,168.270813 99.931648,154.265625 
	C105.539017,148.751999 112.534218,145.711655 120.100121,143.795685 
	C133.980713,140.280609 146.547348,133.767807 158.304565,125.848228 
	C165.822159,120.784439 167.547485,110.527191 163.730774,102.135880 
	C161.501175,97.233940 159.532318,92.648643 155.374756,88.584099 
	C150.817780,84.129066 149.285172,77.220001 148.769897,70.630859 
	C148.420044,66.156937 150.342178,62.907696 155.148956,61.887424 
	C154.429642,53.436211 154.767715,45.348244 157.978394,37.612373 
	C164.112717,22.832291 179.134872,16.114258 193.143555,16.976784 
	C210.891953,18.069565 222.774033,28.044071 226.294159,43.673912 
	C227.030502,46.943394 227.408646,50.201603 227.363510,53.557991 
	C227.307800,57.703354 226.101013,62.306866 231.404861,64.655746 
	C232.228134,65.020348 232.692505,66.566360 233.002472,67.657097 
	C234.662811,73.499649 229.344101,87.759506 224.323639,91.121719 
	C223.506592,91.668884 222.045410,92.081039 221.937790,92.730545 
	C221.038757,98.156265 217.474777,102.694191 217.238831,108.399483 
	C216.833069,118.210663 220.894394,125.099709 229.664978,129.249298 
	C241.961075,135.066879 253.750443,141.714844 267.252350,145.132462 
	C287.150146,150.169052 295.554016,165.788895 299.349915,184.578934 
	C300.989227,192.693542 300.505035,200.844284 299.613403,208.966995 
	C299.055450,214.049927 299.771912,218.869339 301.308441,223.683823 
	C304.902405,234.944992 303.929596,246.762817 305.246155,258.301636 
	C305.933319,264.324097 308.178040,269.566528 310.917328,274.671509 
	C318.509430,288.820129 322.613770,303.904358 324.482727,319.806793 
	C326.357300,335.756744 331.927582,350.782379 337.311188,365.810242 
	C337.954620,367.606415 339.145813,369.029388 340.784241,369.938782 
	C350.737122,375.462860 357.289581,384.226593 363.440399,393.420227 
	C364.912598,395.620697 366.772461,397.561798 368.727020,399.811096 
	C369.000000,401.066681 369.000000,402.133331 369.000000,403.600006 
M93.693459,169.227402 
	C87.515511,181.421616 86.539665,194.305771 88.125496,207.677826 
	C88.470825,210.589737 90.342377,209.714127 91.868546,210.307724 
	C85.348381,222.522202 83.365425,235.530975 83.133461,249.007278 
	C82.965881,258.743164 81.038055,268.059601 76.162018,276.786835 
	C70.537048,286.854492 66.127815,297.599640 64.552567,309.067047 
	C61.910744,328.298737 57.032593,346.877808 50.406975,365.078613 
	C48.849346,369.357452 46.750866,372.819672 42.670307,375.019104 
	C31.742855,380.908966 26.134655,391.519836 19.586340,401.280518 
	C19.488815,401.425873 19.807747,401.850677 20.187801,402.748749 
	C27.726454,400.640442 30.423981,394.198242 33.418152,386.711700 
	C34.775391,391.689331 34.533054,395.265198 33.610542,398.788635 
	C31.164967,408.129150 28.629862,417.446228 26.120283,426.769928 
	C25.633711,428.577698 24.565460,430.410187 26.642933,432.588806 
	C31.896711,424.936371 33.002041,415.513824 38.308117,408.110504 
	C40.967449,410.136108 40.164612,411.978027 39.763447,413.694641 
	C38.135277,420.661926 36.429466,427.611084 34.810226,434.580383 
	C34.302864,436.764099 33.611530,439.016235 34.969776,441.190582 
	C37.841831,440.668365 37.889000,438.334015 38.472111,436.579529 
	C40.781464,429.631104 42.873501,422.610229 45.199207,415.667511 
	C45.761436,413.989166 45.865025,411.482422 49.267380,411.896729 
	C49.725170,421.437927 44.756176,430.382996 45.429790,440.246338 
	C48.302246,439.331909 48.420582,437.265289 48.923019,435.661011 
	C50.862499,429.468414 52.570114,423.203552 54.464535,416.996277 
	C55.102253,414.906708 55.438919,412.346680 59.127441,412.265259 
	C59.901745,419.311279 57.374870,426.072052 58.555355,432.978638 
	C61.665115,420.166321 67.199722,408.130463 69.216957,395.169159 
	C70.057518,389.768250 71.191681,383.980652 67.531776,378.769745 
	C68.958244,376.493256 71.009087,374.711334 72.000183,372.157990 
	C76.481232,360.613708 82.589569,349.897583 89.273758,339.531708 
	C98.009750,325.983795 104.542198,311.519287 109.024605,296.031982 
	C111.190239,288.549408 110.084160,280.724487 112.057678,273.320190 
	C114.585297,263.836975 117.534721,254.466858 120.217911,245.023987 
	C120.848976,242.803131 121.774376,240.401794 121.484535,238.227417 
	C119.926292,226.537521 119.151108,214.689133 115.231262,203.415649 
	C114.836380,202.279999 113.809357,201.069412 115.603439,199.299408 
	C119.422760,205.316452 121.180374,211.851990 122.033134,218.483688 
	C124.115479,234.677521 127.239288,250.645828 130.767929,266.577942 
	C133.579910,279.274292 135.350952,292.129425 131.570602,305.084503 
	C130.383606,309.152283 129.935013,313.434021 130.601501,317.610107 
	C131.865021,317.999359 132.474548,317.347382 133.148788,316.892822 
	C147.856155,306.977112 158.622971,308.662384 169.688248,322.557617 
	C171.826035,325.242096 174.603104,326.814941 178.003036,325.285400 
	C180.459534,324.180298 182.042206,325.160828 183.896866,326.468414 
	C188.606430,329.788635 193.509521,329.996796 198.302368,326.675629 
	C200.489853,325.159821 202.444336,324.478424 205.223984,325.382721 
	C208.992599,326.608704 211.928619,324.821045 214.166000,321.624084 
	C222.136841,310.234619 234.403259,307.573761 246.574097,314.374023 
	C248.344559,315.363251 249.730362,317.427795 252.614365,316.923981 
	C252.876099,313.439240 252.765121,310.035309 252.197617,306.571320 
	C250.831329,298.231812 249.004532,290.013458 250.216751,281.349060 
	C252.433578,265.504120 256.614990,250.058228 259.150085,234.290085 
	C260.680267,224.772461 261.477173,215.106552 264.692932,205.921860 
	C265.501862,203.611465 266.225555,201.181763 268.749146,199.879410 
	C265.673584,209.879044 264.408630,220.070053 262.798340,230.194382 
	C261.983917,235.314774 261.840393,240.255127 263.284515,245.445358 
	C266.180634,255.854034 270.729706,265.898468 271.803345,276.698151 
	C272.743958,286.160217 273.769318,295.466278 276.823212,304.553497 
	C285.872955,331.482239 304.541992,353.403931 314.532959,379.070435 
	C309.893677,398.518646 321.613586,414.774353 323.945557,432.653198 
	C326.626556,425.811951 322.330597,418.865906 324.516876,411.949036 
	C327.611511,412.732483 327.922089,414.861237 328.461212,416.718811 
	C330.177521,422.632355 331.713928,428.599426 333.512085,434.487122 
	C334.136627,436.532166 334.366882,439.035889 337.542175,440.470490 
	C338.428619,430.232452 333.015594,421.186432 334.597961,411.375946 
	C341.088562,420.343994 341.616638,431.870209 347.367828,441.468628 
	C349.800140,438.906738 348.781525,436.729431 348.344482,434.738220 
	C346.739532,427.424927 344.969727,420.147980 343.290588,412.850769 
	C342.898407,411.146545 342.005280,409.259033 345.079559,407.909058 
	C350.621124,415.540405 351.839325,425.433014 357.560150,433.122498 
	C356.598511,417.743774 347.825989,403.891724 349.361420,388.106293 
	C352.552826,394.091644 355.426605,400.052429 362.980560,401.245789 
	C357.250549,391.708588 352.140594,381.763550 342.136780,375.749817 
	C339.040619,373.888519 335.520905,372.154358 334.217590,368.417450 
	C328.848175,353.022003 322.792755,337.761505 320.860260,321.447815 
	C318.938446,305.223938 314.862000,289.784851 306.980560,275.412354 
	C304.162079,270.272583 302.070740,264.912872 301.587982,258.936890 
	C300.254730,242.432358 300.826965,225.549927 292.259796,210.807587 
	C293.445099,208.671463 294.514282,211.511551 294.962097,210.919189 
	C297.773407,198.899734 297.087677,187.680252 293.452301,176.729614 
	C289.741058,165.550507 283.683044,156.163635 272.055511,150.792786 
	C274.503021,158.159439 274.118225,158.607712 261.227386,164.131927 
	C260.699310,166.289993 261.572754,168.327255 261.989258,170.414185 
	C262.716492,174.058044 262.125488,177.398758 259.555481,180.201767 
	C252.858688,187.505692 248.941177,196.246017 246.253220,205.645386 
	C244.608398,211.397110 241.594101,216.395081 237.016983,220.207535 
	C230.405777,225.714249 224.239517,224.071533 221.597382,215.892807 
	C217.071915,201.884262 214.780060,187.461060 214.639374,172.707001 
	C214.588547,167.377289 216.109589,162.504913 218.564514,157.902405 
	C221.609665,152.193359 225.252197,150.696548 231.373260,152.599503 
	C235.505493,153.884171 239.535187,155.498123 243.665573,156.789398 
	C247.317657,157.931137 255.997025,155.267899 257.541595,152.113937 
	C258.656433,149.837433 260.188477,148.659225 263.649261,147.946884 
	C249.544388,144.629181 238.441193,137.754059 226.902267,131.920898 
	C220.299469,128.583038 214.948517,123.550812 214.163635,115.695869 
	C213.520447,109.258972 213.766998,102.725739 213.769211,96.235260 
	C213.770157,93.449059 215.204041,93.185745 217.208496,95.212830 
	C220.216614,80.964241 223.953537,67.279175 223.739319,52.966866 
	C223.463776,34.558620 211.998886,22.283216 193.630157,20.817286 
	C175.533905,19.373098 161.718689,30.438074 159.056107,48.143333 
	C157.662933,57.407528 159.294662,66.401009 160.836075,75.383911 
	C162.093246,82.710426 163.225403,90.138054 166.121841,97.442375 
	C167.122147,95.729401 165.048676,94.049835 167.423111,92.746567 
	C169.584030,98.504005 169.139328,104.395988 169.242645,110.236359 
	C169.416214,120.045578 165.003403,127.212975 156.593430,131.877563 
	C145.546936,138.004501 134.166595,143.461975 122.367462,147.982452 
	C132.187820,158.761459 134.675156,159.311234 148.540390,153.849197 
	C150.396179,153.118118 152.273270,152.365753 154.209549,151.930588 
	C157.792221,151.125427 160.855377,152.137405 162.923508,155.294403 
	C165.787552,159.666336 167.998505,164.410645 168.257523,169.657074 
	C169.046371,185.635757 166.228546,201.185822 161.634094,216.389862 
	C159.310287,224.079849 153.156433,225.537735 146.869766,220.466415 
	C140.907135,215.656540 137.679825,209.215988 135.682281,201.980835 
	C133.619354,194.508881 130.554245,187.434372 125.058945,181.858521 
	C120.940155,177.679367 119.635216,173.093735 121.633133,167.763702 
	C122.905083,164.370392 121.605690,163.207993 118.558922,162.677994 
	C115.948982,162.223969 113.309135,161.875931 111.369759,159.642960 
	C109.486992,157.475174 110.010551,154.864532 110.160530,152.085159 
	C102.200729,155.603851 97.803009,161.778992 93.693459,169.227402 
M155.942062,314.382172 
	C142.990479,311.156067 131.536957,317.859436 127.894447,330.639679 
	C124.916878,341.086853 124.866913,352.025299 122.312042,362.546112 
	C120.782784,368.843567 119.303978,375.189789 118.414497,381.599030 
	C116.005424,398.958008 115.546982,416.352875 117.126114,433.876038 
	C118.666489,450.968994 120.788445,467.939178 125.222908,484.509247 
	C132.029144,509.941772 132.341080,535.346008 126.770767,561.045105 
	C123.976776,573.935425 123.423607,586.987976 125.918694,600.187134 
	C129.615540,619.743652 134.915787,638.661804 143.496475,656.728882 
	C149.485062,669.338196 152.936111,682.725403 150.315475,696.957947 
	C149.737946,700.094482 149.763916,703.504578 145.630219,706.828735 
	C147.759201,696.827087 149.358459,688.160400 147.742172,679.228577 
	C146.103989,670.175659 142.903503,661.759399 138.618408,653.526123 
	C144.446640,668.641235 138.233658,684.081909 140.346619,699.279785 
	C137.351212,700.122009 138.036682,695.799988 135.525146,695.876892 
	C132.361481,698.215027 129.428101,701.147278 125.898117,702.821960 
	C119.822624,705.704285 119.514168,706.457092 124.780212,710.931396 
	C126.994896,712.813110 129.592377,713.908997 132.355118,714.607605 
	C135.629105,715.435547 138.732315,716.689819 141.384018,718.736816 
	C145.880508,722.207825 150.903305,723.161255 156.431870,722.766235 
	C164.353546,722.200256 167.213547,717.963501 166.402740,710.079712 
	C165.955627,705.732239 162.170456,704.101013 161.095032,700.473572 
	C158.551331,691.893555 157.807968,683.204224 158.226654,674.311829 
	C158.988708,658.126404 166.205109,643.123779 166.431763,626.752258 
	C166.569305,616.816162 170.956375,607.374634 171.775742,597.355530 
	C173.002579,582.353577 169.048187,567.947388 167.042419,553.335510 
	C166.077423,546.305603 162.602966,540.022461 154.704926,538.817505 
	C149.181076,537.974792 143.542831,538.020203 139.008759,534.889893 
	C136.697998,536.918701 136.662079,539.997314 133.379883,540.332703 
	C137.640091,531.738098 139.069504,522.394897 141.507507,513.334656 
	C143.018433,518.294678 142.238251,523.104675 140.620789,527.594421 
	C139.061539,531.922607 140.597809,533.486450 144.489502,534.737244 
	C150.005142,536.510010 156.012207,534.669739 161.364075,538.699890 
	C161.326691,531.532532 158.469208,525.762756 161.019470,519.830322 
	C163.122330,528.816650 163.493546,538.185669 168.469666,546.836182 
	C169.058258,545.474487 169.466156,544.581787 169.833755,543.672729 
	C175.869690,528.746521 177.192719,512.986511 177.594788,497.159515 
	C177.912369,484.657410 178.527557,472.205109 180.754288,459.902893 
	C182.976227,447.627075 185.346054,435.377472 186.369553,422.932220 
	C186.811691,417.555969 187.214417,412.123810 186.264984,406.136200 
	C178.173386,409.590424 170.529068,412.383087 162.228104,412.101196 
	C152.585129,411.773804 142.981155,407.983826 140.555939,403.618683 
	C142.803070,402.963623 144.322937,404.615326 146.078247,405.313995 
	C158.745544,410.355774 171.105270,410.037170 183.080566,403.251831 
	C187.553391,400.717468 190.507568,397.360748 189.776001,391.589050 
	C189.318817,387.982086 189.660660,384.266815 189.743896,380.602417 
	C189.771286,379.396698 189.438705,377.769745 192.382767,377.697418 
	C192.382767,382.299530 192.779816,386.909393 192.284668,391.421295 
	C191.630615,397.381226 194.517883,400.909302 199.269913,403.408722 
	C211.498947,409.840820 224.019836,410.480988 236.805023,405.061798 
	C238.293015,404.431122 239.644760,402.749908 242.318130,404.267242 
	C235.147659,410.082947 227.171494,411.858124 218.851151,411.979248 
	C210.468674,412.101288 202.714172,408.977051 194.666199,405.164764 
	C194.867584,416.714966 194.475494,427.474396 196.639969,437.837341 
	C201.940155,463.213287 202.863922,488.941650 204.399643,514.663147 
	C205.071381,525.913879 207.840393,536.834290 212.443451,547.847839 
	C216.885117,538.582336 217.726654,529.021362 220.195786,519.847107 
	C222.358490,526.084473 219.413467,532.028687 219.241516,538.576416 
	C226.206650,534.639893 233.647552,536.255920 240.590179,534.527161 
	C237.513184,538.012085 233.464417,538.161926 229.356522,538.367554 
	C222.696213,538.701050 217.599228,541.180298 215.472031,548.217468 
	C212.037827,559.578491 210.660828,571.298218 209.342911,582.991760 
	C207.927811,595.547424 211.184418,607.692017 213.083740,620.031616 
	C215.535645,635.961243 218.444870,651.732361 221.841492,667.477539 
	C224.097977,677.937622 223.885208,688.686157 220.249069,699.043579 
	C219.711060,700.576050 219.762711,702.673035 216.291245,703.209473 
	C220.470215,690.757263 220.957962,678.643921 218.319061,666.430298 
	C218.526260,670.563599 216.993744,674.277039 215.608124,678.017517 
	C214.366882,681.368286 213.506805,684.939575 214.564713,688.303894 
	C216.959564,695.919800 216.422165,703.355164 214.663071,710.963562 
	C213.320740,716.769348 215.501160,720.379700 221.178940,722.029541 
	C225.546646,723.298706 230.332550,723.799011 234.353592,721.563965 
	C240.478195,718.159729 246.500275,714.817078 253.352829,712.966064 
	C255.557404,712.370544 257.371948,710.105652 259.204102,708.428772 
	C260.653168,707.102539 261.041687,705.007874 258.947510,704.392700 
	C253.205978,702.705994 249.242340,698.332703 244.697327,695.189697 
	C242.742157,696.495605 243.401566,700.065674 239.352234,699.089417 
	C242.860123,691.945435 240.162033,684.824890 239.707184,677.657715 
	C239.154770,668.953491 241.344849,660.533142 242.710846,650.937012 
	C234.566544,669.226929 228.500000,686.723633 235.498322,706.854614 
	C230.819916,704.543213 231.332321,701.010193 230.762085,698.210876 
	C227.771088,683.528137 231.422394,669.760498 237.222321,656.449341 
	C243.280060,642.546448 249.167267,628.647034 252.247025,613.671692 
	C255.308182,598.786865 258.198029,583.964050 255.524490,568.689270 
	C253.291931,555.934143 250.474625,543.308594 250.168335,530.224670 
	C249.882355,518.008667 250.023071,505.936981 253.225769,494.075562 
	C259.312225,471.533844 263.142792,448.646240 264.761292,425.328705 
	C267.025208,392.712463 259.447174,361.206635 254.856339,329.332062 
	C253.257568,318.231567 237.589813,311.579498 229.402420,313.805084 
	C218.577942,316.747528 212.767609,325.196899 213.622345,337.764252 
	C213.802841,340.417969 213.654053,342.775452 211.678406,344.669464 
	C208.671921,347.551758 207.189819,351.198730 206.095413,355.101593 
	C205.423370,357.498230 204.992554,360.305969 202.790512,361.666199 
	C199.067993,363.965729 197.127487,367.398560 195.140472,371.059937 
	C192.643875,375.660370 190.729309,375.457977 187.446411,371.340363 
	C185.755325,369.219360 186.366241,365.842377 183.726593,364.536774 
	C179.168869,362.282471 177.643600,358.207672 176.489655,353.745514 
	C175.821152,351.160583 175.130905,348.394684 173.167358,346.557831 
	C169.063477,342.718903 168.567612,337.916443 168.770844,332.807312 
	C169.128159,323.824829 164.698990,318.026367 155.942062,314.382172 
M226.323685,219.102188 
	C228.770462,221.455673 231.216812,220.576569 233.578384,219.011475 
	C238.680664,215.630081 241.689453,210.712189 243.378616,204.975037 
	C246.036560,195.947342 249.467590,187.250015 255.812927,180.182663 
	C259.746979,175.800964 259.282867,171.284012 258.202332,166.480621 
	C256.005463,165.670395 255.418350,168.615250 253.581970,167.941986 
	C252.329407,166.955521 254.262054,165.774506 253.304764,164.761734 
	C249.338242,164.965866 246.052551,166.928574 242.749176,168.860153 
	C239.432327,170.799652 236.058792,172.794525 232.173019,173.119827 
	C226.681152,173.579544 223.117279,176.014908 221.940369,181.574203 
	C221.779236,182.335327 221.356491,183.179443 220.241486,182.973618 
	C218.783844,177.800827 222.145798,172.144104 228.119720,171.022751 
	C234.301300,169.862427 239.841797,167.637726 245.170212,164.360825 
	C249.015091,161.996277 253.497406,161.095627 258.030151,160.664581 
	C260.675415,160.413040 263.319153,160.029175 265.924103,159.507568 
	C267.931641,159.105591 269.789185,158.205261 270.377899,155.990707 
	C270.792450,154.431259 269.734161,153.389145 268.515656,152.807693 
	C266.435211,151.814987 263.473663,150.051727 262.002747,151.890015 
	C255.271881,160.301865 243.966476,159.913345 236.054230,165.962387 
	C233.894135,167.613831 230.936050,168.344040 228.236740,169.126205 
	C226.310898,169.684265 224.085480,170.107468 221.812637,167.226364 
	C229.791550,167.012421 235.524445,163.253693 242.299088,159.478104 
	C238.369461,158.060669 235.567627,157.026520 232.749725,156.038132 
	C225.396088,153.458832 223.441223,154.266968 220.219452,161.198288 
	C216.613052,168.957062 217.218063,177.102707 218.267654,185.206757 
	C219.736969,196.551270 220.786057,208.018158 226.323685,219.102188 
M155.035141,169.327820 
	C144.692123,165.648071 135.468170,159.456390 125.037773,155.942947 
	C123.918541,155.565933 122.988037,154.249008 122.257607,153.172867 
	C120.495369,150.576599 118.251266,151.246307 116.080215,152.189560 
	C114.406769,152.916626 112.559074,153.966415 113.008415,156.197449 
	C113.517197,158.723602 115.727821,159.611633 117.955505,159.600677 
	C132.330765,159.529861 143.856995,168.620239 157.256378,171.773621 
	C162.053818,172.902664 163.662491,177.415939 161.722275,182.435730 
	C160.457657,174.324326 154.497864,173.240128 148.396469,172.186447 
	C144.909454,171.584259 141.918304,169.637070 138.842285,167.974014 
	C135.861557,166.362488 132.841156,164.827698 129.571289,164.581345 
	C128.765320,166.066101 130.742737,167.168091 129.237228,168.132965 
	C127.646652,168.333328 126.785469,166.164749 124.744278,167.137634 
	C124.048828,170.999680 122.883354,175.023163 126.192642,178.632828 
	C132.517899,185.532227 136.559616,193.612183 138.864212,202.660034 
	C140.425659,208.790268 143.660263,213.990662 148.589050,218.018204 
	C153.601288,222.113953 157.021057,221.225754 158.971832,215.009415 
	C163.434372,200.789093 165.556061,186.161285 165.624054,171.270554 
	C165.645752,166.517578 163.746841,162.157150 161.345123,158.122833 
	C160.155609,156.124710 158.553436,154.200455 155.767792,154.680466 
	C150.921936,155.515442 146.340424,157.061142 141.695602,160.024887 
	C148.013779,163.559296 153.676575,166.831192 160.906891,167.257843 
	C159.387543,169.898239 157.510040,169.476654 155.035141,169.327820 
M187.139191,363.494324 
	C189.681213,365.051361 188.059128,369.197906 192.089569,370.670166 
	C193.094681,364.821777 197.795013,362.013733 201.727081,358.473816 
	C202.586090,357.700470 202.641327,356.043365 203.087555,354.800720 
	C204.261612,351.531189 204.664963,347.802032 207.308502,345.322998 
	C212.601166,340.359772 210.362579,334.508606 210.402145,328.826843 
	C204.871506,328.645966 200.205612,328.151245 195.641861,331.015106 
	C192.698471,332.862183 188.456726,332.683136 185.560913,330.661346 
	C181.256393,327.655945 176.761185,329.339081 171.585114,328.420532 
	C173.330719,333.489502 170.480759,338.605286 173.985886,342.804443 
	C176.720032,346.079926 178.589096,349.687531 179.610672,353.795227 
	C180.619064,357.849945 182.729935,361.094360 187.139191,363.494324 
M162.298203,694.123169 
	C162.839813,696.121765 163.381424,698.120361 163.711563,699.338562 
	C170.048157,687.116821 163.427841,674.855225 162.488022,662.183594 
	C161.128387,672.625732 160.227280,682.942932 162.298203,694.123169 
M153.501053,76.022835 
	C154.705429,79.910622 156.036072,83.729424 159.778809,87.709320 
	C158.920059,82.293869 158.578979,78.020920 157.473724,73.955727 
	C156.792587,71.450493 158.153305,66.276123 154.281357,67.052200 
	C150.577927,67.794495 152.742081,72.295387 153.501053,76.022835 
M223.374557,81.458099 
	C223.604019,83.204628 222.062073,84.821838 222.913254,86.709160 
	C228.618652,80.682304 230.897919,70.254005 227.292740,66.624039 
	C226.937576,66.936295 226.339569,67.198952 226.256088,67.575645 
	C225.290848,71.930283 224.403488,76.302193 223.374557,81.458099 
z"/>
<path fill="#000000" opacity="1.000000" stroke="none" 
	d="
M188.078094,96.320969 
	C182.750977,95.297737 177.782440,94.461861 173.929947,90.343819 
	C185.435699,95.322754 196.834778,95.006187 209.107300,89.524055 
	C205.483139,94.739807 198.937607,96.591370 188.078094,96.320969 
z"/>
<path fill="#000000" opacity="1.000000" stroke="none" 
	d="
M107.903267,277.544830 
	C108.498016,277.598816 109.046318,277.835083 109.042503,277.844360 
	C107.327507,282.016418 106.075165,286.494812 103.670662,290.231781 
	C101.611015,293.432800 98.231117,295.784271 95.005257,298.930725 
	C94.126228,295.650177 95.471100,293.629974 97.389809,292.096436 
	C100.465683,289.638031 102.956940,287.063202 103.313995,282.790833 
	C103.516251,280.370728 105.394348,278.708954 107.903267,277.544830 
z"/>
<path fill="#000000" opacity="1.000000" stroke="none" 
	d="
M280.777527,286.995789 
	C282.744965,289.259064 284.668610,291.091034 286.331055,293.135437 
	C287.663055,294.773499 288.829559,296.635620 287.832153,299.092865 
	C281.218079,293.221680 276.593414,286.339844 274.238525,278.001709 
	C278.358978,278.477234 279.259338,279.697510 280.777527,286.995789 
z"/>
<path fill="#000000" opacity="1.000000" stroke="none" 
	d="
M86.791336,279.193298 
	C86.305214,276.600159 84.864815,274.483521 86.491859,271.814148 
	C90.713875,277.236664 90.424469,282.548767 87.122414,288.365112 
	C84.118233,285.356140 87.500954,282.389893 86.791336,279.193298 
z"/>
<path fill="#000000" opacity="1.000000" stroke="none" 
	d="
M295.323944,274.719116 
	C295.834930,273.386139 295.547211,271.882568 298.123779,272.020172 
	C296.803406,277.341309 296.211975,282.687347 297.008728,288.106537 
	C294.364716,283.989868 292.372864,279.842621 295.323944,274.719116 
z"/>
<path fill="#000000" opacity="1.000000" stroke="none" 
	d="
M135.103882,617.681702 
	C133.765579,616.969666 132.584564,616.559082 132.839844,614.656433 
	C136.030746,614.578979 139.321289,616.955688 142.601242,614.237915 
	C145.270554,612.026184 144.709656,607.878052 148.641891,605.779968 
	C151.904282,613.105103 156.736649,618.823669 164.990494,620.653503 
	C156.571381,622.465515 152.072983,617.459778 148.106918,610.625916 
	C145.524277,616.613159 141.743347,619.693420 135.103882,617.681702 
z"/>
<path fill="#000000" opacity="1.000000" stroke="none" 
	d="
M232.598663,611.000916 
	C229.018341,616.266907 225.498276,621.533020 218.112701,621.716736 
	C217.271652,621.737671 216.446655,621.796631 215.564774,619.808411 
	C224.813049,619.627930 228.488983,612.756226 231.879349,605.573853 
	C235.726349,607.867554 234.726929,612.381470 237.767380,614.508728 
	C241.117325,616.852417 244.388123,614.604614 247.934402,614.504822 
	C243.397293,620.871826 236.666718,619.190369 232.598663,611.000916 
z"/>
<path fill="#000000" opacity="1.000000" stroke="none" 
	d="
M242.191040,525.860352 
	C243.942108,530.834106 245.587234,535.415894 247.402466,540.471436 
	C241.576645,537.050659 236.368484,519.414612 239.347626,511.653625 
	C240.641617,516.982971 240.507004,521.450500 242.191040,525.860352 
z"/>
</svg>