<svg version="1.1" id="Layer_1" xmlns="http://www.w3.org/2000/svg" xmlns:xlink="http://www.w3.org/1999/xlink" x="0px" y="0px"
	 width="100%" viewBox="0 0 368 736" enable-background="new 0 0 368 736" xml:space="preserve">
<path fill="#000000" opacity="1.000000" stroke="none" 
	d="
M34.417839,431.993896 
	C32.755077,435.145111 30.414078,437.219971 27.079571,435.822632 
	C23.545238,434.341553 23.287968,430.936584 24.284861,427.682678 
	C26.380230,420.843262 28.690971,414.069702 30.929302,407.274353 
	C31.543919,405.408447 32.433327,403.607300 32.169769,401.040619 
	C28.891611,403.916351 25.473932,405.744202 21.252445,405.339294 
	C19.115589,405.134369 17.335011,404.320068 16.379522,402.359863 
	C15.404357,400.359314 16.597578,398.804932 17.899704,397.475037 
	C21.542912,393.754242 24.414623,389.415527 27.069443,385.032043 
	C31.000813,378.540863 36.471455,373.843170 42.748890,369.965668 
	C45.916874,368.008881 47.744202,365.392639 49.056877,361.958374 
	C56.051643,343.658569 59.780987,324.612122 62.586113,305.315033 
	C63.987755,295.672882 67.118149,286.423340 71.904396,278.024261 
	C77.966942,267.385498 80.438995,256.023407 80.550270,244.070953 
	C80.628769,235.638916 82.348709,227.558258 84.433075,219.512314 
	C85.668671,214.742737 85.606934,210.084839 85.130173,205.198944 
	C83.269699,186.132843 85.940628,168.262466 100.253967,153.904999 
	C106.759659,147.379242 115.108231,144.711380 123.739769,142.466141 
	C135.979797,139.282227 146.683304,132.758911 157.399231,126.340439 
	C158.639145,125.597763 159.704163,124.386772 160.542267,123.179161 
	C164.822235,117.012291 163.596100,95.721420 157.600891,91.446602 
	C150.813690,86.607048 149.065887,79.850632 147.371552,72.794189 
	C146.254654,68.142662 145.925003,63.419968 152.009811,61.316875 
	C154.380295,60.497566 153.230972,58.246849 153.160019,56.499256 
	C152.684525,44.787621 154.552094,33.747562 163.842789,25.537407 
	C175.907166,14.876164 189.824890,13.237284 204.411118,19.116425 
	C218.306274,24.717007 224.184753,36.199089 225.211121,50.576439 
	C225.550308,55.327991 223.846146,60.704327 229.761902,63.563969 
	C230.458786,63.900845 230.803024,65.243874 231.050903,66.188667 
	C232.824860,72.950066 227.492065,86.413849 221.828171,90.772934 
	C217.933624,93.770287 217.752960,98.809097 216.286606,103.100746 
	C216.235077,103.251549 216.286713,103.434395 216.262039,103.598045 
	C214.186203,117.368385 218.700912,126.897499 232.474899,132.185974 
	C242.355118,135.979462 251.484726,141.396286 262.055328,143.879227 
	C283.710846,148.965942 293.495697,166.294342 296.327087,187.534149 
	C296.942108,192.147385 296.848755,196.777954 296.456940,201.461960 
	C295.806030,209.243668 295.918518,216.973679 298.406281,224.632080 
	C301.624207,234.538223 301.066437,245.034103 302.077698,255.274521 
	C302.613556,260.701050 303.860809,265.881958 306.554230,270.475983 
	C316.621307,287.646790 320.534363,306.619537 323.489624,325.934540 
	C325.542908,339.354248 330.876556,351.808075 335.161713,364.567657 
	C335.725372,366.246063 336.817810,367.498291 338.305908,368.308258 
	C346.686523,372.869598 353.329559,379.146057 358.324371,387.344940 
	C360.557251,391.010223 363.649292,394.154144 366.371094,397.518707 
	C367.595123,399.031738 368.313568,400.656128 367.486359,402.578186 
	C366.660858,404.496368 364.976654,405.103149 363.051208,405.287323 
	C357.916107,405.778564 354.253601,403.001221 349.962982,398.608307 
	C353.019318,407.568451 355.644287,415.224945 358.234589,422.893097 
	C358.712860,424.308899 359.068359,425.767426 359.450317,427.214203 
	C360.249237,430.240204 360.507538,433.240875 357.794800,435.483917 
	C355.948212,437.010803 353.765320,436.379150 349.418518,433.295654 
	C349.887482,437.366180 351.646637,441.846954 346.687836,443.910553 
	C343.280060,445.328674 340.990082,443.245636 339.342560,439.909393 
	C337.168060,442.472595 335.023834,445.035950 331.492645,442.762543 
	C328.571472,440.881836 328.259491,437.477753 326.987610,434.228760 
	C324.595398,435.090515 322.869629,438.117554 319.941498,436.547058 
	C316.710449,434.813995 316.093445,431.501526 315.781525,428.433258 
	C314.460175,415.435608 309.427856,403.298492 307.256775,390.511993 
	C307.062012,389.365204 306.696411,388.163055 306.859955,387.052887 
	C308.405182,376.562653 303.202972,368.075409 298.804077,359.326996 
	C290.882202,343.572174 280.236237,329.298645 274.019440,312.587463 
	C269.688538,300.945770 266.700684,289.190033 266.033203,276.734619 
	C265.531433,267.370972 261.149597,258.878082 258.593597,249.885559 
	C254.778549,266.521393 250.989288,282.754456 253.505203,300.368622 
	C256.039307,318.110260 260.521851,335.455841 262.644562,353.264160 
	C263.915375,363.925323 267.466034,374.308624 268.754791,385.061737 
	C271.024384,403.998260 270.628571,422.934875 268.839630,441.883881 
	C267.019501,461.163177 262.147644,479.816254 257.944427,498.646912 
	C254.406250,514.498047 254.407440,531.023071 257.946167,546.752747 
	C262.819122,568.413025 262.841644,589.425171 257.017487,610.800232 
	C252.475601,627.469360 248.465302,644.304993 245.831650,661.431458 
	C245.275589,665.047485 246.551407,668.392456 246.420654,671.797729 
	C245.905029,685.225098 254.070419,693.328125 263.473358,700.802551 
	C263.994690,701.217041 264.502472,701.651917 264.987579,702.108093 
	C268.402191,705.318604 272.569336,708.540405 271.233765,713.804871 
	C269.920776,718.980347 265.178986,721.111816 260.364746,722.297424 
	C254.604507,723.715942 248.755539,724.777649 242.937332,725.955994 
	C240.712082,726.406616 238.341644,726.025818 236.677933,724.798584 
	C231.427246,720.925415 224.772598,718.340271 222.904648,711.064453 
	C222.321609,708.793396 220.335144,708.189209 218.613525,707.214050 
	C212.621811,703.820435 210.941681,700.401306 212.479904,693.578125 
	C213.835190,687.566528 215.557251,681.682434 213.053513,675.532471 
	C212.599396,674.417053 212.831390,672.847473 213.177032,671.607422 
	C218.486679,652.558289 216.244888,633.502258 212.041107,614.808350 
	C208.027557,596.960449 206.904602,579.393250 210.941422,561.520752 
	C212.551941,554.390381 212.219742,547.371094 209.474823,540.436584 
	C205.013275,529.165466 202.997513,517.213501 202.963959,505.270508 
	C202.896805,481.364471 200.114365,457.850098 195.527100,434.462158 
	C193.857086,425.947723 193.519424,417.286804 193.469864,408.591003 
	C193.710388,430.012360 187.510849,450.609467 185.639862,471.731903 
	C184.761078,481.652832 184.209778,491.640594 184.195419,501.654083 
	C184.177460,514.173523 182.668716,526.631287 178.382614,538.467834 
	C175.202866,547.249146 174.729340,555.829956 176.976257,564.873108 
	C181.347260,582.464783 178.569977,599.781982 174.982101,617.205811 
	C171.864975,632.343445 169.534180,647.800476 172.512527,663.253052 
	C173.750687,669.677063 175.477844,675.743042 173.399216,682.313110 
	C172.554153,684.984131 173.757553,687.853516 174.672501,690.579346 
	C177.574890,699.226379 176.238327,703.004944 168.576294,707.735229 
	C166.733780,708.872742 165.666443,710.271851 164.999329,712.274841 
	C163.973022,715.356445 161.687363,717.369873 159.267761,719.559326 
	C146.673111,730.955627 134.068741,724.037659 121.753090,719.586182 
	C115.990578,717.503418 115.210480,711.802856 118.817390,706.662292 
	C121.143044,703.347900 124.285950,700.843933 127.529732,698.490356 
	C129.701553,696.914612 131.552856,695.063110 133.339233,693.051636 
	C142.758591,682.445251 143.133347,669.539307 140.990936,656.932129 
	C138.043701,639.588867 133.781265,622.434265 129.362610,605.385376 
	C124.571625,586.899902 125.285896,568.717834 128.739136,550.081543 
	C132.452606,530.040771 132.836929,509.816589 126.897240,489.836639 
	C118.785950,462.551758 115.494797,434.499512 115.187401,406.127411 
	C114.997688,388.617401 118.288345,371.414886 120.973549,354.158813 
	C122.609123,343.648102 125.050232,333.211182 126.207565,322.744110 
	C127.520859,310.866638 130.138168,299.037903 130.223969,287.136902 
	C130.313934,274.657990 126.463852,262.564392 123.039352,250.373184 
	C120.121574,259.965881 115.790665,269.279633 115.584290,279.347260 
	C115.203346,297.930817 108.495735,314.448761 100.328171,330.567291 
	C96.417938,338.284088 91.819901,345.649323 87.670593,353.248718 
	C81.216393,365.069489 74.528786,376.806854 76.330025,391.174072 
	C76.625923,393.534210 75.878433,396.178467 75.062798,398.497864 
	C71.619064,408.290741 69.940994,418.453064 68.349617,428.645691 
	C68.196205,429.628204 68.019836,430.621643 67.709442,431.562256 
	C66.917633,433.961761 66.103065,436.508240 63.131794,436.920166 
	C60.165897,437.331390 58.598705,435.370422 57.481186,432.862823 
	C55.445953,436.539124 56.254963,441.967499 50.878201,443.313507 
	C48.210060,443.981445 46.386856,442.594788 45.458149,440.206879 
	C43.951813,440.175873 43.744297,441.360260 43.177151,442.081787 
	C41.670433,443.998657 39.725945,444.784424 37.440022,444.040588 
	C34.869270,443.204071 33.899910,440.955841 33.954945,438.524292 
	C34.003166,436.393555 34.686085,434.277832 35.073891,432.152802 
	C35.099369,432.013245 35.038029,431.812988 34.941872,431.714111 
	C34.890156,431.660889 34.678478,431.763184 34.417839,431.993896 
M40.062538,392.638489 
	C35.607716,405.136932 30.891905,417.549347 27.539402,430.411438 
	C27.369102,431.064819 27.812141,431.689026 29.658688,432.328888 
	C34.448174,424.619324 36.928558,415.467926 41.414772,407.343506 
	C43.087021,407.504150 44.591934,407.529327 45.405685,409.140869 
	C41.573223,416.221313 37.267105,436.950256 39.717243,441.573792 
	C43.330395,430.513000 47.725178,420.883514 48.962326,409.601898 
	C54.274471,411.448273 59.755459,410.089111 65.636620,409.874542 
	C60.005226,417.319702 62.974804,424.988373 61.147823,432.411438 
	C64.626274,431.910370 64.502098,430.048462 64.714424,428.474182 
	C66.251503,417.077332 69.218246,406.002991 71.805405,394.823944 
	C73.541504,387.322357 76.264214,378.662384 67.122337,373.038239 
	C69.549103,370.882690 71.450111,374.138275 73.979027,372.641602 
	C81.116089,354.390991 93.004654,338.082153 101.363274,319.925934 
	C106.113281,309.608215 110.778267,298.896545 111.263466,287.612091 
	C111.847061,274.039154 115.517746,261.389709 119.176453,248.623566 
	C120.990570,242.293625 121.926186,236.100510 120.677826,229.514862 
	C118.735611,219.268814 119.524895,208.545685 115.259689,198.688049 
	C114.719315,197.439163 114.258827,195.964020 116.205444,194.107590 
	C120.421394,206.067474 124.597664,217.559494 136.396149,223.655167 
	C148.137390,229.721252 160.111771,226.395096 172.128998,224.658691 
	C163.923370,229.483978 155.160248,230.376450 145.931503,229.476730 
	C135.949066,228.503540 128.968246,222.757141 122.063660,214.519653 
	C122.856659,226.506302 124.283112,237.010239 126.568100,247.403336 
	C128.743729,257.299042 130.963638,267.185089 133.115341,277.085938 
	C135.410538,287.647034 133.112610,298.000183 131.212662,308.271606 
	C129.569687,317.153687 132.270767,323.172577 140.179947,327.679749 
	C148.959335,332.682770 149.767212,342.421967 152.447388,351.059998 
	C146.599487,341.179871 143.530579,329.092377 130.338654,324.925446 
	C114.732758,388.341431 114.007698,451.057190 138.434341,512.358948 
	C135.969711,513.791077 136.020004,511.265930 134.372223,511.655121 
	C134.372223,517.899048 134.227997,524.202637 134.408051,530.496887 
	C134.643082,538.713806 133.719131,546.756470 131.812073,554.744324 
	C128.151062,570.078674 128.496597,585.377930 132.115967,600.724731 
	C136.506989,619.343445 141.679932,637.813171 144.706055,656.709351 
	C146.939484,670.655762 146.366150,684.356018 135.959366,695.741394 
	C133.017853,698.959534 129.668274,701.664001 126.147881,704.792175 
	C131.245972,708.772766 123.344391,709.694458 124.152596,713.094849 
	C127.857544,712.216492 128.875046,707.355774 133.062119,707.343384 
	C133.486221,710.442505 130.787857,711.102112 129.730331,712.823669 
	C128.684616,714.526062 126.077087,716.087891 128.873459,718.506287 
	C136.894653,709.392822 136.894653,709.392822 139.562851,709.147766 
	C138.654175,712.134338 135.776550,713.426697 134.392303,715.812378 
	C133.643997,717.102051 132.471497,718.697388 134.178818,719.756836 
	C136.029602,720.905396 137.057343,719.579651 137.817245,717.752869 
	C139.634109,713.385254 143.638092,711.605347 147.621536,709.601501 
	C147.045059,712.224976 147.958023,714.312744 148.815338,716.166443 
	C146.611084,718.190735 143.451355,715.622131 141.786438,718.315491 
	C144.712051,722.095154 148.273666,722.960754 151.532684,720.378906 
	C156.786957,716.216309 162.836075,712.588501 163.240326,704.706055 
	C163.292542,703.687988 163.654434,702.362183 164.994339,701.776489 
	C168.178696,704.458740 170.244888,702.608887 171.759521,699.789062 
	C173.464645,696.614685 171.643936,692.234680 168.015152,690.920654 
	C169.579498,681.576538 171.238251,672.430847 168.947144,662.540588 
	C165.443909,647.417786 167.833466,631.886353 171.337341,617.007629 
	C176.281891,596.011353 177.147888,575.355103 170.938599,554.535583 
	C169.336578,555.443115 168.743774,557.232056 167.848007,558.750427 
	C162.156204,568.398315 160.548660,579.136841 160.488846,590.008850 
	C160.375198,610.671997 163.292664,631.173523 164.515121,651.771301 
	C164.565674,652.622864 165.378677,653.789307 163.388809,654.129272 
	C162.359222,651.549805 161.891632,648.853149 161.653214,646.081787 
	C160.398697,631.498535 158.820602,616.935547 157.932205,602.330444 
	C156.985001,586.758667 157.612610,571.331543 165.660110,557.201904 
	C167.555847,553.873352 170.492111,551.234680 171.778839,547.529297 
	C177.218658,531.864258 180.672501,515.869324 180.776443,499.175018 
	C180.858292,486.031769 181.507324,472.901459 183.542618,459.870209 
	C185.671249,446.241180 188.472244,432.697205 189.334946,418.897797 
	C189.711761,412.870331 191.995468,406.065857 184.152206,402.532623 
	C183.617813,402.291870 183.268509,401.547119 182.929886,400.979065 
	C178.885651,394.194641 178.434372,385.851074 173.156708,379.492950 
	C176.473541,379.943909 177.857819,382.222076 178.943771,384.512573 
	C180.724075,388.267517 182.044296,392.239105 183.789871,396.012360 
	C185.663116,400.061493 188.656372,402.773590 193.453629,402.667419 
	C198.102524,402.564545 201.294373,400.346619 203.066040,396.006165 
	C204.575256,392.308655 206.031448,388.571075 207.848892,385.024323 
	C209.038849,382.702148 210.045242,379.889526 213.794388,379.660706 
	C208.738388,386.131500 208.251633,394.482208 204.066208,401.252594 
	C203.078644,402.850067 201.779892,404.242218 200.009811,404.826416 
	C197.646317,405.606445 197.159943,407.190338 197.138748,409.419952 
	C197.060989,417.599792 197.693893,425.729462 198.892258,433.802704 
	C201.161057,449.087250 204.911133,464.112610 205.648041,479.675995 
	C206.300110,493.447693 205.771545,507.306396 208.378586,520.986755 
	C210.316742,531.157166 211.794357,541.796631 217.472092,550.327576 
	C225.483887,562.365356 229.329422,575.066528 229.396896,589.259827 
	C229.484909,607.774170 227.823502,626.185303 226.020203,644.575562 
	C225.737320,647.460449 226.382553,651.000000 223.336914,654.153320 
	C223.075348,652.357788 222.756210,651.392029 222.824722,650.454529 
	C223.940689,635.187134 225.150513,619.926453 226.244553,604.657471 
	C227.031540,593.673828 227.446228,582.664612 224.702438,571.870483 
	C223.071594,565.454590 220.798859,559.243469 215.985458,553.687317 
	C215.503235,556.721619 215.229660,559.165833 214.716156,561.558411 
	C211.096573,578.423462 211.287308,595.111450 215.265808,612.013611 
	C219.042221,628.057129 221.715027,644.495667 219.143341,660.993042 
	C217.796326,669.634277 216.267303,677.937378 219.244476,686.451599 
	C219.771744,687.959534 219.585480,689.716980 219.740601,691.495544 
	C214.363617,692.404236 215.758469,696.315063 216.493958,699.349182 
	C217.379074,703.000366 219.920792,704.258362 223.365601,701.856506 
	C225.055176,703.711548 225.417526,705.898743 225.895416,707.974670 
	C227.645691,715.577637 233.846817,718.491760 239.984222,721.422363 
	C241.483307,722.138245 243.246429,722.173035 244.816559,721.257141 
	C246.066864,720.527954 246.928207,719.476257 246.437363,717.973389 
	C246.004227,716.647278 244.850174,716.544861 243.564743,716.621338 
	C242.017990,716.713440 240.370010,717.875732 238.515869,716.047424 
	C241.332977,714.527649 241.318329,712.105042 240.484756,709.179077 
	C243.975418,711.626404 247.892380,713.094116 249.813049,717.056274 
	C250.405609,718.278564 250.199051,720.323914 252.416107,720.107117 
	C253.015594,720.048462 253.844589,719.699463 254.100754,719.229065 
	C255.134750,717.330566 253.385010,716.224609 252.629959,714.840149 
	C251.363297,712.517578 248.103729,711.559143 247.762482,707.964966 
	C253.826431,709.038513 255.019958,715.625793 260.046173,717.906616 
	C261.331635,712.659546 253.894531,712.072693 255.126389,707.161865 
	C258.321808,707.692505 259.649689,710.742737 261.689148,711.392456 
	C262.835510,704.215515 256.980225,701.090149 253.098495,696.596558 
	C249.844788,692.830017 247.173843,688.557129 244.284317,684.480408 
	C243.302063,683.094604 242.423828,681.448730 242.969803,679.808960 
	C244.105133,676.398926 243.088028,673.203369 242.385834,669.988281 
	C241.732773,666.998108 241.825150,664.105347 242.248779,661.083252 
	C245.073212,640.934387 250.915680,621.447327 255.133972,601.606323 
	C257.106750,592.327148 259.159668,582.997681 258.225220,573.452332 
	C256.398224,554.790344 250.876541,536.505188 252.563461,517.477417 
	C252.694855,515.995422 252.680679,513.915955 251.374359,513.343323 
	C248.513565,512.089233 249.465958,510.503357 250.184418,508.531067 
	C260.703156,479.655701 265.245270,449.715759 266.794708,419.121246 
	C268.230133,390.777679 260.283936,363.780731 256.169464,336.226166 
	C255.210297,329.802612 251.485504,324.031464 251.893494,317.330933 
	C252.230591,311.794495 251.583649,306.342957 250.308350,300.987640 
	C249.064377,295.763855 248.671143,290.511688 248.636063,285.156647 
	C248.557632,273.187866 252.100342,261.835876 254.297424,250.259277 
	C256.396240,239.200562 258.379547,228.144257 258.936829,215.627274 
	C252.145569,223.592880 244.889694,228.442169 235.436768,229.462234 
	C224.306137,230.663376 213.154068,228.521240 209.522629,223.800186 
	C221.848053,226.769974 233.769882,229.557465 245.475342,223.642273 
	C257.364258,217.634384 260.607880,205.345779 265.828949,193.656601 
	C266.960754,196.277176 266.584839,197.864899 266.065491,199.126434 
	C262.967590,206.651306 262.682098,214.640137 261.560394,222.543198 
	C260.012512,233.449387 260.086853,243.956772 263.935333,254.462158 
	C266.731689,262.095520 269.907776,269.862976 270.072266,278.060150 
	C270.417236,295.249359 276.586609,310.546631 284.157257,325.486938 
	C291.086182,339.160889 299.941711,351.765320 306.515167,365.649658 
	C307.757782,368.274261 307.990753,371.518860 310.367828,373.232117 
	C312.753998,373.853058 314.309845,370.737396 317.328156,372.883148 
	C310.573425,376.223236 309.949493,382.048218 310.536560,388.103363 
	C310.887024,391.718262 311.727539,395.352539 312.857880,398.811371 
	C315.446350,406.731873 317.505615,414.715454 318.484253,423.029572 
	C318.836670,426.023651 318.470612,429.676056 321.542938,432.119171 
	C323.443298,426.436279 321.659271,413.775391 317.941986,409.364105 
	C324.664124,410.505737 330.730316,411.483215 337.450348,409.274109 
	C334.844299,414.915527 340.857117,436.515167 345.126678,440.262146 
	C347.267822,439.243530 346.475006,437.525452 346.090179,435.966980 
	C344.215179,428.373077 342.263153,420.797974 340.438843,413.192078 
	C340.031921,411.495514 337.822662,409.154785 340.821503,408.137115 
	C343.603302,407.193115 343.734528,410.282776 344.494934,411.881897 
	C346.997620,417.144836 349.229706,422.535858 351.682983,427.823242 
	C352.460846,429.499725 352.719696,431.799622 355.252533,432.015259 
	C357.354309,430.383789 356.106659,428.528229 355.597778,426.931183 
	C352.313782,416.624268 348.868225,406.368896 345.575165,396.064789 
	C344.823425,393.712463 343.397888,393.860260 341.356812,393.936371 
	C333.345123,394.234955 324.939880,388.301270 323.678802,381.540558 
	C326.205566,381.938019 326.904297,384.318665 328.470123,385.608673 
	C332.365631,388.818054 336.600006,392.393982 341.720184,390.811493 
	C344.448059,389.968445 346.018311,390.416595 347.991943,391.480865 
	C350.535736,392.852661 352.303223,395.090698 354.235779,397.170044 
	C356.214233,399.298798 358.254700,401.595398 362.621490,400.767548 
	C358.276825,393.305939 353.770233,386.474915 348.329590,380.613129 
	C342.780823,374.634888 336.029053,369.708191 327.473541,368.666412 
	C327.732239,366.038147 330.714691,367.374359 331.184784,365.104706 
	C330.688995,363.465302 330.199127,361.529541 329.523254,359.661041 
	C324.592377,346.028381 320.131775,332.281891 318.274109,317.814178 
	C316.196350,301.632843 311.559326,286.288239 303.122131,272.192200 
	C301.321533,269.183990 300.512726,265.736176 299.566315,262.356659 
	C297.381836,254.556107 298.481995,246.419266 297.031891,238.583023 
	C294.160797,223.068008 291.639038,207.644257 292.733826,191.670929 
	C293.532745,180.014069 288.873138,169.468689 281.841736,160.187805 
	C276.508514,153.148376 269.110657,149.345581 260.530182,147.148605 
	C260.920441,152.929764 259.625458,154.395264 254.216080,154.231491 
	C249.055023,154.075241 243.807114,153.254257 238.859604,155.143021 
	C231.193680,158.069626 223.273590,159.862503 215.265640,161.490860 
	C210.543579,162.451035 205.949341,163.757675 205.003876,169.931732 
	C204.657211,172.195541 202.538818,174.196793 201.194916,176.296234 
	C200.206802,177.839828 199.094055,179.302505 199.227661,181.301270 
	C199.691498,188.240585 200.267868,195.176437 200.534943,202.123856 
	C200.887802,211.303452 202.420761,220.635742 197.957855,229.363739 
	C196.889938,231.452240 197.787704,232.765381 199.382324,234.052185 
	C206.381943,239.700653 211.380814,246.868378 215.490616,254.814575 
	C219.260910,262.104401 224.008606,268.795135 230.319382,274.134094 
	C235.588623,278.591888 240.221695,277.868469 244.260132,272.451630 
	C244.780334,271.753876 245.045990,270.434143 246.454712,271.146271 
	C244.848389,278.969727 238.347046,282.097351 231.605530,278.227295 
	C227.951553,276.129669 224.984573,273.204193 222.333466,269.948669 
	C217.682816,264.237762 213.967407,257.946106 210.435226,251.497726 
	C206.957367,245.148529 202.309738,239.729706 196.160660,234.893204 
	C195.462234,237.481857 195.127167,239.104095 194.580704,240.651688 
	C193.917206,242.530746 193.233215,244.762222 190.838364,244.797821 
	C188.467163,244.833069 187.709259,242.672806 186.911957,240.812424 
	C186.213593,239.182877 186.418289,237.162888 184.495712,235.566299 
	C178.393936,240.576187 173.608780,246.577255 169.936127,253.558380 
	C165.967346,261.102448 161.433502,268.265564 155.345459,274.339569 
	C153.427567,276.252991 151.325455,277.869659 148.781647,278.791809 
	C141.851547,281.303955 135.675934,277.413818 135.509903,270.391602 
	C135.983490,270.628265 136.547470,270.734314 136.824219,271.074219 
	C142.954193,278.603333 146.918884,278.843140 153.689835,271.855896 
	C158.584244,266.805084 162.623489,261.104950 165.961929,254.905518 
	C170.250778,246.941132 174.993683,239.310867 182.401123,233.781265 
	C183.982666,232.600662 184.499344,231.320496 183.579987,229.505539 
	C177.397095,217.299423 181.080109,204.424835 181.282928,191.840530 
	C181.391586,185.098724 183.462219,178.292633 177.534607,172.808273 
	C176.729202,172.063095 176.065094,170.830582 175.931213,169.749924 
	C175.205826,163.894516 170.891953,162.424942 166.129745,161.462692 
	C160.420578,160.309128 154.522476,159.751938 149.140381,157.469940 
	C142.198349,154.526581 135.136917,153.623291 127.664436,154.221268 
	C121.479088,154.716248 120.668839,153.713638 120.284927,147.558823 
	C113.185371,148.775558 105.246719,153.156937 100.724030,158.637741 
	C89.235260,172.560364 86.729660,188.822586 88.753571,206.139709 
	C89.222435,210.151352 89.521881,214.026108 88.473335,218.002487 
	C85.706856,228.493698 84.095192,239.119110 83.925247,250.037354 
	C83.781624,259.264404 81.535698,268.131744 76.876106,276.307465 
	C71.723450,285.348297 68.149971,295.070648 66.396561,305.303833 
	C63.418274,322.685547 61.006233,340.164246 54.821335,356.828308 
	C53.334080,360.835449 50.336334,365.188568 56.552422,368.595337 
	C37.728245,372.385345 30.618095,387.684662 20.359528,401.073059 
	C25.235641,401.796112 27.701111,399.798370 29.717257,397.063507 
	C31.852736,394.166748 34.481197,391.966919 37.806988,390.602386 
	C39.227070,390.019745 40.705566,389.261353 40.983356,391.962372 
	C40.861732,392.095001 40.740105,392.227631 40.062538,392.638489 
M159.091064,74.658813 
	C160.155960,81.389763 161.072144,88.157700 163.312256,94.633957 
	C166.565781,104.040047 179.542114,114.675400 187.973648,114.921539 
	C199.206360,115.249451 212.401352,104.705963 215.682571,92.971092 
	C218.876999,81.546616 220.391434,69.827652 221.536560,58.096062 
	C223.631119,36.637779 212.782501,22.283823 192.212616,19.760433 
	C175.464249,17.705847 157.998230,29.265345 157.148300,48.498928 
	C156.772522,57.002472 157.112473,65.457756 159.091064,74.658813 
M201.261734,115.025452 
	C187.580826,122.329041 176.881882,116.206001 166.400604,105.508881 
	C166.400604,108.836685 166.288147,110.316528 166.418854,111.774590 
	C167.272797,121.300804 163.521851,127.921600 154.888123,132.440491 
	C146.384308,136.891373 137.775818,141.118683 127.905952,145.934799 
	C136.845413,144.829163 143.951736,146.864029 150.985565,149.517258 
	C155.040390,151.046783 159.280014,151.795197 163.666931,151.970062 
	C168.639786,152.168289 173.685074,152.383240 178.532089,153.392197 
	C183.470352,154.420135 185.033768,158.864334 181.335388,161.820892 
	C176.083878,166.019058 178.545532,169.318771 181.146942,173.149902 
	C182.713043,175.456329 185.418747,177.525528 184.938034,180.512207 
	C183.821930,187.446503 184.773819,194.497009 183.516327,201.375229 
	C180.967438,215.317047 185.378357,227.958176 190.677765,241.313522 
	C193.316559,236.545151 193.100830,231.461166 195.617798,227.329208 
	C196.949921,225.142319 197.725998,222.321854 197.847412,219.744736 
	C198.306885,209.993454 197.890350,200.257538 196.867538,190.526611 
	C196.146942,183.671097 195.352676,176.776428 201.287369,171.103882 
	C204.065323,168.448624 203.876129,165.197021 200.360855,162.153870 
	C196.276993,158.618500 197.353455,154.883606 202.528931,153.349289 
	C204.556030,152.748322 206.789963,152.724609 208.935837,152.667328 
	C215.279037,152.497986 221.612427,152.064362 227.669434,150.126389 
	C235.537430,147.609009 243.276108,144.654526 251.850449,145.580444 
	C242.221710,141.158295 233.018433,136.217590 223.698624,131.507370 
	C216.031799,127.632561 212.358047,121.572670 212.660141,113.018974 
	C212.738785,110.792107 212.671967,108.560097 212.671967,105.572876 
	C208.485870,109.081497 205.186676,111.846733 201.261734,115.025452 
M210.758850,159.985367 
	C226.250717,157.977402 240.279358,149.017715 256.613831,150.782593 
	C249.438873,147.052246 242.350510,148.016754 235.384171,150.418671 
	C226.851196,153.360764 218.207199,155.370560 209.118820,155.381393 
	C206.480652,155.384537 203.275574,154.258087 201.503113,157.493271 
	C200.983673,158.441376 201.445572,159.467194 202.159546,160.228012 
	C204.746704,162.984909 207.382690,160.875305 210.758850,159.985367 
M124.927010,149.498962 
	C123.610786,152.083740 125.765335,151.607849 126.949959,151.618988 
	C129.923065,151.646942 133.037872,150.865112 135.847961,151.501892 
	C147.929993,154.239792 159.939133,157.308228 171.934738,160.411301 
	C174.479767,161.069672 176.874161,162.790298 179.230194,160.183258 
	C179.908096,159.433136 180.637436,158.518555 180.024155,157.526352 
	C178.444443,154.970612 175.741638,155.289062 173.307907,155.321487 
	C163.573700,155.451141 154.214447,153.860504 145.113144,150.262146 
	C138.810501,147.770264 132.182236,147.568390 124.927010,149.498962 
M329.436951,428.143951 
	C330.679657,431.847778 330.503021,436.174438 334.777832,440.101685 
	C334.916412,430.705963 332.503113,422.979645 331.080658,415.138184 
	C330.809814,413.645142 329.288269,413.178986 327.865540,413.515259 
	C326.064362,413.941010 326.264282,415.433411 326.580841,416.738403 
	C327.440765,420.283325 328.397339,423.804871 329.436951,428.143951 
M57.529781,414.902618 
	C54.717392,411.657166 53.219833,413.614868 52.641460,416.447296 
	C51.347454,422.784546 50.349152,429.184601 49.353035,435.578186 
	C49.169601,436.755463 48.725639,438.282867 50.932598,439.325287 
	C54.468060,431.756012 55.469418,423.530151 57.529781,414.902618 
M150.400681,70.446236 
	C151.722153,75.894020 152.755432,81.473503 157.161118,85.569824 
	C156.739166,80.071907 155.908096,74.719597 154.960632,69.387962 
	C154.690750,67.869247 154.845062,65.567810 152.520035,65.763939 
	C150.432907,65.939987 150.475525,68.015297 150.400681,70.446236 
M224.873047,65.696205 
	C222.297165,72.196014 221.908234,79.026886 221.511154,85.877579 
	C225.259048,81.281128 227.129059,76.034042 227.648529,70.349731 
	C227.813477,68.544853 228.438919,66.167732 224.873047,65.696205 
z"/>
<path fill="#000000" opacity="1.000000" stroke="none" 
	d="
M155.158768,505.769287 
	C156.838608,508.685150 158.506546,511.118896 160.831375,513.108032 
	C165.358551,516.981567 170.104355,516.496033 175.185211,513.588257 
	C173.967834,517.917969 171.335541,519.474731 166.973007,518.726562 
	C159.252792,517.402466 154.891602,512.136047 152.068146,505.409698 
	C150.845749,502.497559 149.144699,499.479004 150.348648,495.075409 
	C153.115326,498.639130 153.190811,502.455414 155.158768,505.769287 
z"/>
<path fill="#000000" opacity="1.000000" stroke="none" 
	d="
M236.151398,496.128967 
	C238.218811,505.301758 228.597168,518.402039 219.537994,518.934875 
	C216.014130,519.142090 212.743576,518.250610 211.409683,513.956177 
	C223.130569,517.265747 229.475845,513.598450 233.806442,501.576447 
	C234.459137,499.764557 234.035965,497.524170 236.151398,496.128967 
z"/>
<path fill="#000000" opacity="1.000000" stroke="none" 
	d="
M240.473999,329.484558 
	C243.882980,326.915039 247.010605,324.569550 250.138245,322.224060 
	C250.537155,322.626770 250.936066,323.029480 251.334976,323.432190 
	C248.508301,328.444397 242.034744,330.204529 239.252563,335.326050 
	C236.579819,340.246094 235.805847,346.171631 231.442917,350.223236 
	C233.295761,342.904877 234.711380,335.434906 240.473999,329.484558 
z"/>
<path fill="#000000" opacity="1.000000" stroke="none" 
	d="
M139.810150,524.860962 
	C139.899017,522.585876 139.223190,520.486084 142.077011,518.345764 
	C141.744400,529.086792 145.197296,535.948547 157.667145,533.784180 
	C149.870499,539.342529 142.045807,535.006104 139.810150,524.860962 
z"/>
<path fill="#000000" opacity="1.000000" stroke="none" 
	d="
M246.982422,520.750732 
	C247.622803,532.098999 242.735901,537.513123 233.437424,536.297729 
	C232.274521,536.145752 231.116104,536.057739 230.675964,534.396362 
	C231.287094,534.185425 231.845566,533.861206 232.427597,533.811157 
	C242.631958,532.933899 243.357651,532.240051 244.683182,522.238953 
	C244.834793,521.095093 244.327881,518.878906 246.982422,520.750732 
z"/>
<path fill="#000000" opacity="1.000000" stroke="none" 
	d="
M219.195007,526.507996 
	C222.351257,523.472656 221.895325,527.164856 222.207870,528.229126 
	C223.405106,532.305969 223.599152,536.675293 226.544052,540.173767 
	C227.872955,541.752502 230.049957,542.742126 230.392822,545.142090 
	C224.738831,544.961060 221.931610,540.314819 219.195007,526.507996 
z"/>
<path fill="#000000" opacity="1.000000" stroke="none" 
	d="
M41.165306,391.762939 
	C49.557655,392.011200 54.431274,386.326538 59.804070,380.640869 
	C59.658585,388.618317 48.460194,395.427521 40.845436,392.634888 
	C40.740105,392.227631 40.861732,392.095001 41.165306,391.762939 
z"/>
<path fill="#000000" opacity="1.000000" stroke="none" 
	d="
M162.537659,542.388184 
	C160.808289,543.903625 159.650528,545.663086 157.783127,545.743286 
	C160.788879,539.039429 163.842941,532.227783 166.911179,525.384583 
	C168.110138,529.826355 166.230911,537.423645 162.537659,542.388184 
z"/>
<path fill="#000000" opacity="1.000000" stroke="none" 
	d="
M290.541107,277.782379 
	C283.339020,281.100586 281.172821,281.330048 275.543732,278.926605 
	C283.518250,277.841217 290.464752,276.521790 295.363708,270.407593 
	C295.777191,274.444855 292.981262,275.777985 290.541107,277.782379 
z"/>
<path fill="#000000" opacity="1.000000" stroke="none" 
	d="
M98.135483,280.234924 
	C90.193748,277.943512 87.814339,276.121887 86.647942,271.080719 
	C91.909866,276.723175 99.020576,277.822876 107.124115,278.957764 
	C103.660179,281.643127 101.000786,280.064758 98.135483,280.234924 
z"/>
<path fill="#000000" opacity="1.000000" stroke="none" 
	d="
M241.936432,549.888794 
	C243.943176,545.138306 244.654770,540.417847 245.441254,535.006226 
	C248.560730,540.344055 245.647125,551.777527 240.509369,556.298584 
	C239.640350,553.858276 241.256317,552.142639 241.936432,549.888794 
z"/>
<path fill="#000000" opacity="1.000000" stroke="none" 
	d="
M144.686462,554.668823 
	C141.741516,548.447754 139.556320,542.398621 140.774734,535.620789 
	C142.852142,542.381714 144.565826,549.209656 147.710434,555.351318 
	C145.954208,556.809326 145.499054,555.601257 144.686462,554.668823 
z"/>
<path fill="#000000" opacity="1.000000" stroke="none" 
	d="
M334.665070,396.889160 
	C336.438812,396.762482 337.889038,396.236328 340.068451,397.608307 
	C332.383881,400.837097 325.480103,401.367798 318.385193,398.535706 
	C323.598877,397.035889 329.095001,398.645111 334.665070,396.889160 
z"/>
<path fill="#000000" opacity="1.000000" stroke="none" 
	d="
M56.058060,400.332214 
	C51.802788,400.297272 48.106392,399.866272 44.840420,397.235779 
	C51.684811,397.895020 58.517597,397.902283 65.422943,398.040955 
	C62.887020,400.707855 59.626472,400.226379 56.058060,400.332214 
z"/>
<path fill="#000000" opacity="1.000000" stroke="none" 
	d="
M242.679932,509.304993 
	C241.916199,508.071960 240.974228,507.246887 241.538055,505.538208 
	C244.699570,506.701019 245.885452,509.527161 248.009338,512.246704 
	C245.061005,512.783630 244.153839,510.839111 242.679932,509.304993 
z"/>
<path fill="#000000" opacity="1.000000" stroke="none" 
	d="
M174.110626,128.672363 
	C172.682968,124.077301 171.277649,119.878860 171.849640,115.187592 
	C176.029007,126.878960 180.294876,138.509277 184.461685,150.232605 
	C179.287201,144.008270 176.954620,136.435806 174.110626,128.672363 
z"/>
<path fill="#000000" opacity="1.000000" stroke="none" 
	d="
M205.680328,128.480682 
	C203.395935,136.148758 200.831665,143.253616 197.036987,149.821655 
	C196.545975,149.639572 196.054962,149.457489 195.563965,149.275406 
	C198.977020,139.473221 202.390060,129.671051 206.198425,118.733566 
	C207.820557,122.879814 206.069733,125.427689 205.680328,128.480682 
z"/>
<path fill="#000000" opacity="1.000000" stroke="none" 
	d="
M195.878937,158.417023 
	C193.061508,162.397217 188.810059,162.489075 184.960632,158.530609 
	C188.754990,158.362854 192.262848,159.019348 195.878937,158.417023 
z"/>
</svg>